<?xml version="1.0" encoding="utf-8"?>
<?xml-stylesheet type="text/xsl" href="rss1.xsl"?>
<rss version="2.0" xmlns:atom="http://www.w3.org/2005/Atom" xmlns:content="http://purl.org/rss/1.0/modules/content/" xmlns:dc="http://purl.org/dc/elements/1.1/" xmlns:media="http://search.yahoo.com/mrss/">
<channel>
 <title>Getty</title>
 <link>http://www.gettyimg.com/</link>
 <atom:link href="http://www.gettyimg.com/" rel="self" type="application/rss+xml" />

 
                <item>
                <title><![CDATA[【SD】DVD - Tony Braxton feat trey songz - yesterday lpcm Promo Only]]></title>
                <link><![CDATA[https://sharemania.us/threads/tony-braxton-feat-trey-songz-yesterday-lpcm-promo-only.219818/]]></link>
                <description><![CDATA[<article>
<blockquote class="messageText SelectQuoteContainer ugc baseHtml">
friends of sharemania can you remaster this video too (UPSCALE) please<br>
It really is a collectible and it would be better to have it improved the image<br>
thank you so much <img src="styles/default/xenforo/smilies/big_smile-48.png" class="mceSmilie" alt=":)" title="Smile    :)"><br>
<br>
<a href="https://ibb.co/7rXptbw" target="_blank" class="externalLink" rel="nofollow"><img src="https://i.ibb.co/nQb1MRH/Tony-Braxton-feat-trey-songz-yesterday-lpcm-ntsc-po-sl-vob-thumbs.jpg" class="bbCodeImage LbImage" alt="[​IMG]" data-url="https://i.ibb.co/nQb1MRH/Tony-Braxton-feat-trey-songz-yesterday-lpcm-ntsc-po-sl-vob-thumbs.jpg"></a><br>
<br>
<div class="bbCodeBlock bbCodeVfcHH HiddenContent">
<div class="attribution type">Hidden Content:</div>
<blockquote>You must either reply or click 'Like' to see the hidden information contained here.</blockquote>
</div>enjoy friends <img src="styles/default/xenforo/smilies/big_smile-48.png" class="mceSmilie" alt=":)" title="Smile    :)">
<div class="messageTextEndMarker">&nbsp;</div>
</blockquote>
</article>]]></description>
                <author><![CDATA[orionN]]></author>
                </item>

                
                <item>
                <title><![CDATA[【Requests】[REQ VID] - Backstreet Boys, B*Witched, Alexis Jordan, Paulina Rubio Alesha Dixon + Random [LIVE]]]></title>
                <link><![CDATA[https://sharemania.us/threads/backstreet-boys-b-witched-alexis-jordan-paulina-rubio-alesha-dixon-random-live.219812/]]></link>
                <description><![CDATA[<article>
<blockquote class="messageText SelectQuoteContainer ugc baseHtml">
Hi,<br>
I'm looking for these files.<br>
^_^<br>
<br>
<span style="color: #ff00ff"><span style="font-size: 18px"><i>Everything is rare.. exclusive? kkkkkkk.. shared for free. i can buy them. </i></span></span><i><span style="font-size: 18px"><span style="color: rgb(255, 0, 255)">oo_oo</span></span></i><br>
<span style="color: #ff00ff"><span style="font-size: 18px"><i>Jesus.. the world.. <img src="styles/default/xenforo/clear.png" class="mceSmilieSprite mceSmilie64" alt=":mask:" title="Mask    :mask:"></i><br>
<i>More live requests:</i></span></span><br>
<a href="https://sharemania.us/threads/adam-lambert-lives.218274/" class="internalLink">https://sharemania.us/threads/adam-lambert-lives.218274/</a><br>
<a href="https://sharemania.us/threads/mariah-carey-lives.210541/" class="internalLink">https://sharemania.us/threads/mariah-carey-lives.210541/</a><br>
<a href="https://sharemania.us/threads/girls-aloud-cheryl-dvd_lives-i-need-a-miracle-help-me-sisters.218458/unread" class="internalLink">https://sharemania.us/threads/girls...-need-a-miracle-help-me-sisters.218458/unread</a><br>
<br>
<b>BOLD </b>= priority lol (all the lives = rarity = cant find = waiting forever for help)<br>
I'll be in my castle in case someone has a little video to make me happy.<br>
<br>
<span style="font-size: 12px">Nayer - Suave - Sabado Gigante Univision 1080i.ts<br>
Nayer - Suave - Starfloor November 26, 2011 W9HD 1080i.ts<br>
Nayer - Give Me Everything + Suave (Canli Beyaz Show 04.02.2012)<br>
Pitbull - Rain Over Me + Interview - The X-Factor 15Nov2011 VOX-dylwys 1080i.ts</span><br>
<b><span style="font-size: 12px">Duffy - Rain on Your Parade (Wetten, dass...? 28Feb2009).ts 720p.</span></b><br>
<span style="font-size: 12px">Katy Perry &amp; Snoop Dogg - California Gurls (MTV Movie Awards 06.06.2010) H.264 DD5.1-VideoMan.ts</span><br>
<b><span style="font-size: 12px">Justin Bieber - Mistletoe + Interview - The X-Factor 15Nov2011 VOX-dylwys 1080i.ts</span></b><br>
<span style="font-size: 12px">September - Cry For You (The Dome 47)-stel883.mpg</span><br>
<b><span style="font-size: 12px">Kylie Minogue - On a Night Like This - The Royal Variety Performance 2012-12-03 HDTV<br>
Lady Gaga - Poker Face (Friday Night With Jonathan Ross 2009-04-17) 1080i.ts<br>
Lady Gaga - Poker Face + Interview (Le Grand Journal 23.04.2009) HDready-1080i.mpg<br>
Ava Max - Sweet But Psycho, Interview (Rai 1 HD - Che Tempo Che Fa - 03Mar2019)-dylwys.ts</span></b><br>
<span style="font-size: 12px">DIDO - White Flag (The Paul O'Grady Show 25.11.2013) 1080i-dylwys 255MB<br>
The Saturdays - What About Us (SCD 08.12.2013) 264 1080i-mvp 350MB<br>
Agnes - Release Me (Sopot Hit Festiwal 08.08.2009) 1080i<br>
t.A.T.u. - Not Gonna Get Us (VIVA Germany - VIVA Spezial - 22May2011)-dylwys.ts<br>
Alicia Keys - No One (Later Live - with Jools Holland - BBC HD - 18May2010)-dylwys.ts<br>
Jason Derulo - Medley (VOX - X Factor - 29Nov2011)-dylwys.ts<br>
Girls Aloud - Beautiful Cause You Love Me + Interview (Children in Need 16Nov2012) 1080i-dylwys</span><br>
<b><span style="font-size: 12px">Girls Aloud - The Promise (Friday Night With Jonathan Ross) BBC HD 1080i.ts<br>
Girls Aloud - The Promise - The Royal Variety Performance 2012-12-03 HDTV</span></b><br>
<br>
<span style="font-size: 18px"><span style="color: #ff00ff"><i>I really really need more On a mission/Rain on your parade Wetten dass live.. </i><br>
<i>pleeease.. share if you have.</i></span></span><br>
<br>
<b><span style="font-size: 12px">Gabriella Cilmi - On a Mission (Lets Dance for Sport Relief - 27Feb2010)-dylwys.ts<br>
Gabriella Cilmi - On a Mission (Alan Titchmarsh Show March 22, 2010).ts 1080i<br>
Gabriella Cilmi - On a Mission (GMTV).mpg<br>
Gabriella Cilmi - On a Mission (The X-Factor).mpg<br>
Gabriella Cilmi - On a Mission (The Dome 54) mpg<br>
Gabriella Cilmi - On a Mission (So You Think You Can Dance Australia 2010.04.01) SDTV-tixe.ts<br>
Gabriella Cilmi - On a Mission (T4 On The Beach Sessions 14th Aug 2010)-snoop.mpg</span></b><br>
<br>
<div data-s9e-mediaembed="youtube" style="display:inline-block;width:100%;max-width:640px"><div style="overflow:hidden;position:relative;padding-bottom:56.25%"><iframe allowfullscreen="" scrolling="no" style="background:url(https://i.ytimg.com/vi/0WTMbPpwWYM/hqdefault.jpg) 50% 50% / cover;border:0;height:100%;left:0;position:absolute;width:100%" src="https://www.youtube.com/embed/0WTMbPpwWYM"></iframe></div></div><br>
<div data-s9e-mediaembed="youtube" style="display:inline-block;width:100%;max-width:640px"><div style="overflow:hidden;position:relative;padding-bottom:56.25%"><iframe allowfullscreen="" scrolling="no" style="background:url(https://i.ytimg.com/vi/X-kPIwvLaDM/hqdefault.jpg) 50% 50% / cover;border:0;height:100%;left:0;position:absolute;width:100%" src="https://www.youtube.com/embed/X-kPIwvLaDM"></iframe></div></div><br>
<br>
<span style="font-family: 'Arial'"><span style="font-size: 18px"><span style="color: #ff00ff"><i>If you have more BSB old, share please. (vob mpg m2v..)</i><br>
<i>Get Down, The Call, Boys Will Be Boys maybe(i love it), We've Got It Goin' On, Quit Playin' Games (With My Heart)..</i></span></span></span><br>
<br>
<span style="font-size: 12px">Backstreet Boys - Full cut 'i want it that way, Everybody, Incomplete' (Good Morning America 2012) 720p60fps<br>
Backstreet Boys - Full cut ' Dont Go Breaking My Heart, I want it that way, Everybody' Good Morning America Summer Concert Series 07.13.2018 720p60fps<br>
Backstreet Boys - Straight Through My Heart (Music Japan 04-10-2009) 1080i<br>
Backstreet Boys - Straight Through My Heart (Shin Domoto Kyodai 11.10.2009).mpg 1080i<br>
Backstreet Boys - Straight Through My Heart (Sukkiri).ts 1080i<br>
Backstreet Boys - Straight Through My Heart (Conan O'Brien Show 08.10.2009).mpg 1080i<br>
Backstreet Boys - Chances (Strahan and Sara 30.01.2019).ts 720p60fps 1080i<br>
Backstreet Boys - Chances (The Voice S15E16 November 13, 2018).ts 1080i<br>
Backstreet Boys - Chances (The Tonight Show Starring Jimmy Fallon 24.01.2019).ts 1080i<br>
Backstreet Boys - Everybody (The Tonight Show Starring Jimmy Fallon 24.01.2019).ts 1080i<br>
Backstreet Boys - It's Christmas Time Again (Disney Christmas Day Parade December 25, 2012).ts <br>
Backstreet Boys - In a World Like This (Daybreak June 28, 2013)<br>
Backstreet Boys - Everybody (Good Morning America 15.05.2013)<br>
Backstreet Boys - Everybody (BoyBand Finale 24.08.2017)<br>
Backstreet Boys - Everybody - ABC Network Upfront May 16th, 2017 BACKHAUL 720p 17mbps MPA2.0-ALANiS.ts<br>
Backstreet Boys - Everybody (ITV HD - Loose Women - 26Oct2018).ts<br>
Backstreet Boys - Everybody (iHeartRadio Jingle Ball North 17Dec2017) FEED CTV DD5.1 1080i AVC-AlexQ.ts<br>
Backstreet Boys - Larger than life (iHeartRadio Jingle Ball North 17Dec2017) FEED CTV DD5.1 1080i AVC-AlexQ.ts<br>
Backstreet Boys - Medley (BBC One HD - Strictly Come Dancing The Results - S16E08 - 14Oct2018).ts<br>
Backstreet Boys - No Place, I Want It That Way - iHeartRadio Music Awards 2019 720p HDTV DD5.1 MPEG2-ilya2129.TS<br>
Backstreet Boys - Everybody [Greatest Hits 1995-2000 2016]_azamusic.ts<br>
Backstreet Boys - I want it that way (iHeartRadio Jingle Ball North 17Dec2017) FEED CTV DD5.1 1080i AVC-AlexQ.ts<br>
Backstreet Boys - I want it that way (iHeartSummer 2017 Weekend Day 2).ts<br>
Backstreet Boys - I want it that way (Greatest Hits 1995-2000 2016)_azamusic.ts<br>
Backstreet Boys - I want it that way + No Place (Good Morning America 25.01.2019).ts 720p60fps or FEED<br>
Backstreet Boys - I want it that way (The Ellen DeGeneres Show 2005.05.17)-Ma1215.mpg<br>
Backstreet Boys - Incomplete (The Ellen DeGeneres Show 2005.05.17)-Ma1215.vob.mpg<br>
Backstreet Boys - Incomplete (Jay Leno 2005.06.16)-Ma1215.mpg<br>
Backstreet Boys - Incomplete (The View 06.14.05)-Cr1ck37.m2v<br>
<br>
B*Witched - C'est la vie on Sunrise 13-02-2017.ts<br>
B*Witched - C'est La Vie (Comic Relief 2023 March 23, 2017).ts<br>
B*Witched - Interview + C'est La Vie (This Morning March 17, 2023).ts<br>
B*Witched - C’est La Vie (The Late Late Show March 10, 2023).ts<br>
B*Witched - C'est La Vie + interview (RTE Late Late Show 5.4.2013).ts<br>
<br>
Paulina Rubio - Boys Will Be Boys (Univison Sabado Gigante 50) 1080i.ts<br>
Paulina Rubio - Boys Will Be Boys (Premios Billboard 2012) 1080i.ts<br>
Paulina Rubio - Boys Will Be Boys / Y Yo Sigo Aquí (En Vivo Balón de Oro) 1080i.ts<br>
Paulina Rubio - Boys Will Be Boys / Si Te Vas / Mi Nuevo Vicio / Me Quema (Premios Telehit 2016) 1080i.ts<br>
Paulina Rubio - Boys Will Be Boys (Teleton 2012) 1080i.ts<br>
Paulina Rubio - Boys Will Be Boys (The X-Factor USA 2013) 1080i.ts<br>
<br>
Alexis Jordan - Happiness - Sunrise 2011-03-03 7 Digital 576i-Suave.mpg<br>
Alexis Jordan - Happiness - The Dome 57 RTL2HD 1080i.ts<br>
Alexis Jordan - Happiness - Adam Hills In Gordon St Tonight March 09, 2011 1080i.ts-azamusic<br>
Alexis Jordan - Happiness - Eska Music Awards 2011 1080i.ts<br>
Alexis Jordan - Interview + Hush Hush - The Alan Titchmarsh Show May 09, 2011 ITV1 HD 1080i.ts<br>
<br>
Duffy - Endlessly - Today Show 2010 1080i TrollHD 519MB<br>
Duffy - Warwick Avenue - A Little Later 2007 BBCHD 1080i DD5.1-dylwys 338MB<br>
Duffy - Well Well Well - The Ellen DeGeneres Show 12-07-2010) 1080i DD5.1-TrollHD 408MB<br>
Duffy - Well, Well, Well - BBC Strictly Come Dancing 11-21-10 1080i DD5.1-dylwys 248MB<br>
Duffy - Well, Well, Well - Later ...Live with Jools Holland 10-19-10 BBCHD 1080i DD5.1-dylwys 179MB<br>
Duffy - Mercy (Fashion Rocks 2008) 1080i<br>
Duffy - Rockferry - The Late Show With David Letterman 2008<br>
Duffy - Endlessly (Jay Leno 2010) (1080i).mpg 352 mb<br>
Duffy - Medley (Hurricane Festival 2009)-dylwys.mpg 555 mb<br>
Duffy - Medley (Remix One Shot Not 2011) 720p-dylwys.ts 697 mb<br>
Duffy - Mercy (4music Top Tunes Of 2008)-snoop.mpg 83 mb<br>
Duffy - Mercy (Fashion Rocks 2008).mpg 166 mb<br>
Duffy - Mercy (Glastonbury 2008) 1080i.mpg 667 mb<br>
Duffy - Mercy (Jools Holland 2009)-dylwys.ts 194 mb<br>
Duffy - Mercy (Jools Holland's New Year's Eve Hootenanny 2009).mpg 260 mb<br>
Duffy - Mercy (New Pop Festival 2008) 1080i-Exoduss.ts 328 mb<br>
Duffy - Mercy (Nrj Music Awards 2009) 1080i.ts 300 mb<br>
Duffy - Mercy (Popstars 2010)-dylwys.ts 295 mb<br>
Duffy - Mercy (Radio 2 Live In London 2008)-snoop.mpg 108 mb<br>
Duffy - Mercy (Saturday Night Live 2008) 720p.ts 144 mb<br>
Duffy - Mercy (Sunrise 2009) 1080i-Tixe.ts 406 mb<br>
Duffy - Mercy (T Mobile Transmission 2008)-snoop.mpg 71 mb<br>
Duffy - Mercy (Taratata).mpg 144 mb<br>
Duffy - Mercy (Top Of The Pops Christmas Special 2008)-snoop.mpg 167 mb<br>
Duffy - Mercy (V Festival 2008) 1080i-Exocaps.ts 188 mb<br>
Duffy - Rain On Your Parade (Jools's Annual Hootenanny 2008) 1080i.ts 478 mb<br>
Duffy - Rain On Your Parade (Paul O'grady Show 2008)-snoop.mpg 105 mb<br>
Duffy - Rain On Your Parade (The Month With Miquita 2008)-sSnoop.mpg 75 mb<br>
Duffy - Rain On Your Parade (Top Of The Pops New Years Eve Special 2008)-snoop.mpg 157 mb<br>
Duffy - Rockferry (Jools Holland 2009)-dylwys.ts 213 mb<br>
Duffy - Serious (V Festival 2008)-snoop.mpg 77 mb<br>
Duffy - Stepping Stone (Jay Leno 2009).mpg 105 mb<br>
Duffy - Stepping Stone (Jools Holland 2009) Dylwys.ts 214 mb<br>
Duffy - Stepping Stone (T Mobile Transmission 2008)-snoop.mpg 69 mb<br>
Duffy - Warwick Avenue (Brit Awards 2009) Snoop.mpg 101 mb<br>
Duffy - Warwick Avenue (Glastonbury 2008) 1080i.mpg 545 mb<br>
Duffy - Warwick Avenue (Graham Norton Show 2008).mpg 95 mb<br>
Duffy - Warwick Avenue (Jools Holland) 1080i-dylwys.ts 332 mb<br>
Duffy - Warwick Avenue (Popstars 05-12-2010)-dylwys.ts 304 mb<br>
Duffy - Warwick Avenue (Radio 2 Live In London 2008)-snoop.mpg 95 mb<br>
Duffy - Warwick Avenue (V Festival 2008)-snoop.mpg 63 mb<br>
Duffy - Well Well Well (Jimmy Fallon 2010) 1080i.ts 302 mb<br>
Duffy - Well Well Well (Popstars 2010)-dylwys.ts 134 mb<br>
Duffy - Well Well Well (Strictly Come Dancing 2010) 1080i-dylwys.ts 260 mb<br>
<br>
Gabriella Cilmi - Woman On A Mission (Lets Dance for Sport Relief - 27Feb2010)-dylwys.ts<br>
Gabriella Cilmi - On a Mission (So You Think You Can Dance Australia 2010.04.01) SDTV-tixe.ts<br>
Gabriella Cilmi - On a Mission (T4 On The Beach Sessions 14th Aug 2010)-snoop.mpg<br>
Gabriella Cilmi - On a Mission (The Dome 54) mpeg2.MPG<br>
Gabriella Cilmi - Hearts Don't Lie (52nd Annual TV Week Logie Awards 2010-05-02).mpg<br>
Gabriella Cilmi - Hearts Don't Lie (Hollyoaks Music Show 29thMay2010)-snoop.mpg<br>
Gabriella Cilmi - Hearts Don't Lie (Frock Me with TK Max 23May2010)-madonion007.ts<br>
Gabriella Cilmi - Interview + Hearts Don't Lie - .GMTV.ITV1 HD.01-June-2010.madonion007.ts<br>
Gabriella Cilmi - Interview + Hearts Don't Lie - Live from Studio Five.01-June-2010.madonion007.ts<br>
Gabriella Cilmi - Medley [Melbourne Sound Relief 2009]_azamusic.mpg<br>
Gabriella Cilmi - Save The Lies [Aus Idol 20 Oct 2008 HD 1080.ts<br>
Gabriella Cilmi - Sweet About Me (Musiq1 Awards 20-10-2010-DVBS-Luco).mpg<br>
Gabriella Cilmi - Sweet About Me [7 Sunrise 1 Apr 2008 HD 1080i]_azamusic.ts<br>
Gabriella Cilmi - Sweet About Me [Aria Awards 2008]_azamusic.mpg<br>
Gabriella Cilmi - Sweet About Me [Jools Holland, 2007-12-15].mpg<br>
Gabriella Cilmi - Sweet About Me [Rove Live 6 Apr 2008 HD 1080i]_azamusic.ts<br>
Gabriella Cilmi - Sweet About Me [Today Show 2008].mpg<br>
Gabriella Cilmi - Sweet About Me (BRITs 2009 Launch Party Jan 09)-snoop-.mpg<br>
Gabriella Cilmi - Sweet About Me (Divas 2 23rdNov08)-snoop-.mpg<br>
Gabriella Cilmi - Sweet About Me (iTunes Festival 14thJuly2008)-snoop-.mpg<br>
Gabriella Cilmi - Sweet About Me (TOTP New Years Eve Special 31stDecember2008)-snoop-.mpg<br>
Gabriella Cilmi &amp; Alyssa - Sweet About Me (TF1 Star Academy).mpg<br>
Gabriella Cilmi - Sweet About Me (Lottery Show 30-8-08).mpg MVP<br>
Gabriella Cilmi - Sweet About Me [ZDF in Concert 2008]-stel883.ts<br>
Gabriella Cilmi - Receiving Award + Sweet About Me(TVN Sopot Festival 22aug2009) h264-MK.ts<br>
Gabriella Cilmi - Sweet About Me (Jimmy_Fallon_20090324)-Ma1215.ts<br>
Gabriella Cilmi - Sweet About Me (TVN Sopot Festival 22Aug2009) h264-MK.ts<br>
Gabriella Cilmi - Sweet About Me [TRL 24-09-2008]-stel883.ts<br>
Gabriella Cilmi - Magic Carpet Ride (Thi _Morning 17th August 2010)-snoop-.mpg<br>
Gabriella Cilmi - Defender (The 519 Show 28th August 2010)-snoop-.mpg<br>
Gabriella Cilmi - Defender (Michael Ball Show 26th August 2010)-snoop.mpg<br>
Gabriella Cilmi &amp; Enrique Iglesias - Takin Back My Love (Alan Titchmarsh Show 27th Mar 2009)-snoop-.mpg<br>
<br>
Alesha Dixon – Drummer Boy (BBC HD – The Heroes Concert 12.09.2010) 1080i<br>
Alesha Dixon - Radio (BBC One HD - Strictly Come Dancing - 14Nov2010)-dylwys.ts<br>
Alesha Dixon - The Boy Does Nothing (Children in need 2008)<br>
Alesha Dixon - The Boy Does Nothing (GMTV)<br>
Alesha Dixon - The Boy Does Nothing (V Festival 2009 23-08-09)<br>
Alesha Dixon - The Boy Does Nothing (The Graham Norton Show 2008)<br>
Alesha Dixon - The Boy Does Nothing (Stricly Come Dancing 19-10-08)<br>
Alesha Dixon - The Boy Does Nothing (Fete de la musique 2009)<br>
Alesha Dixon - The Boy Does Nothing (Primavera Pop 40)<br>
Alesha Dixon - The Boy Does Nothing (El Hormiguero)<br>
Alesha Dixon - The Boy Does Nothing (Paul de leeuw)<br>
Alesha Dixon - Lets Get Excited (The Feelgood Factor)<br>
Alesha Dixon - Lets Get Excited (Paul O'Grady Show 2009 05-05-09)<br>
Alesha Dixon - Lets Get Excited (SOUND 25-04-09)<br>
Alesha Dixon - Lets Get Excited (Nokia Green Room 19-12-08)<br>
Alesha Dixon - Drummer Boy (Tonights The Night 2010-08-14) 576 138mb<br>
Alesha Dixon - Drummer Boy (MOBOs 2010)<br>
Alesha Dixon - Radio (Stricly Come Dancing 2010)<br>
<br>
Alexandra Burke – Start without You (BBC HD – The Heroes Concert 12.09.2010) HD-1080i<br>
Alexandra Burke - Start Without You (Alan Carr 2010)<br>
Alexandra Burke - All Night Long (Sunrise) (1080i).mpg 277 mb<br>
Alexandra Burke - All Night Long and Bad Boys (Bydgoszcz Hit Festiwal 28-08-2010) (1080i) Luco.ts 650 mb<br>
Alexandra Burke - Bad Boys (Nacht Van De Vlaamse Televisie Sterren 06-03-2010) (720p).ts 253 mb<br>
Alexandra Burke - Bad Boys (T4 On The Beach 04-07-2010) (1080i-Upscale) Luco.ts 425 mb<br>
Alexandra Burke - Bad Boys (The X Factor 2009) snoop.mpg 159 mb<br>
Alexandra Burke - Elephant (Koko Pop - Channel 4 HD - 05May2012)-dylwys<br>
Alexandra Burke - Elephant (Let's Dance for Sport Relief 2012) 1080i-dylwys.ts 419 mb<br>
Alexandra Burke - Let It Go (Koko Pop - Channel 4 HD - 05May2012)-dylwys<br>
Alexandra Burke - Bad Boys (GMTV 2009-10-13) 576 102mb<br>
Alexandra Burke - Bad Boys (X Factor 2009)<br>
Alexandra Burke - Bad Boys (This Morning 20Oct2009)-snoop<br>
Alexandra Burke - Bad Boys (Dutch X Factor)<br>
Alexandra Burke - Bad Boys (T4 on the Beach 04-07-2010)<br>
Alexandra Burke - Bad Boys (T4 18-10-2009)<br>
<br>
Pixie Lott MTV Presents Titanic Live H264 DD5.1<br>
PIXIE LOTT - LIVE VIBRATIONS (MTV LIVE HD 21.01.2013) H.264 1080i-dylwys 804MB<br>
Pixie Lott – Turn It Up (Loose Women 09.06.2010) HD-1080i<br>
Pixie Lott – Interview &amp; What Do You Take Me For (Loose Women 07.11.2011) HD-1080i<br>
Pixie Lott – Interview + All About Tonight (Lorraine 06.09.2011) HD-1080i<br>
Pixie Lott – Interview + Everybody Hurts Sometimes (This Morning 16.12.2011) HD-1080i<br>
Pixie Lott – Boys &amp; Girls (BBC HD – The Heroes Concert 12.09.2010) HD-1080i<br>
Pixie Lott – T4 Album Chart Show (03.12.2011) HD-1080i<br>
Pixie Lott – All About Tonight (Sainsburys Super Saturday 10.09.2011) HD-1080i<br>
Pixie Lott – All About Tonight (Red or Black 04.09.2011) HD-1080i<br>
Pixie Lott – Turn it Up (Britains Got Talent 02.06.2010) HD-1080i<br>
Pixie Lott – One Night Stand (11.11.2010) H264 HD-1080i<br>
Pixie Lott - Mama Do (Brit Awards Launch Party 2010) Snoop.mpg 80 mb<br>
Pixie Lott - Mama Do (Sunway Lagoon Surf Beach 2009).ts 91 mb<br>
Pixie Lott - Medley (Boys &amp; Girls - Mama Do) (Blackpool 06-09-2009).ts 189 mb<br>
<br>
Leona Lewis - Hurt (The X Factor Final 2011-12-10) ITVHD 1080i-madonion007.ts<br>
Leona Lewis - Bleeding Love (Ant &amp; Dec's Saturday Night Takeaway - S13E04 - STV HD - 12Mar2016) .ts<br>
Leona Lewis - I Got You (BBC 1 - So You Think You Can Dance - 06Feb2010)-dylwys.ts<br>
Leona Lewis - Happy (Wetten dass...? 2009-12-05)<br>
Leona Lewis - Run - The X Factor USA Finale - 2011.12.23 - [HDTV-1080i].mpg<br>
Leona Lewis - Happy (America's Got Talent Finale 09.16.09) HD-1080i<br>
Leona Lewis - Bleeding Love (Sunrise 30Apr2008) 1080i.ts 277MB<br>
Leona Lewis - Bleeding Love (MusicFair21 Japan 17May2008) 1080i.ts 289MB<br>
Leona Lewis - Bleeding Love (The Tonight Show with Jay Leno 24Mar2008) NBC DD5.1 1080i.ts 409MB<br>
<br>
MTV VMA 2007ts 1080i<br>
MTV Movie Awards 2010.ts 1080i<br>
Fashion Rocks 2008.ts 1080i<br>
Dick Clark's New Year's Rockin' Eve 2005.ts<br>
Dick Clark's New Year's Rockin' Eve 2006.ts<br>
Dick Clark's New Year's Rockin' Eve 2007.ts<br>
Dick Clark's New Year's Rockin' Eve 2008.ts<br>
Dick Clark's New Year's Rockin' Eve 2009.ts<br>
Dick Clark's New Year's Rockin' Eve 2010.ts<br>
Dick Clark's New Year's Rockin' Eve 2011.ts<br>
Dick Clark's New Year's Rockin' Eve 2012(FEED)<br>
Dick Clark's New Year's Rockin' Eve 2013.ts<br>
Dick Clark's New Year's Rockin' Eve 2014.ts<br>
Dick Clark's New Year's Rockin' Eve 2015.ts</span>
<div class="messageTextEndMarker">&nbsp;</div>
</blockquote>
</article>]]></description>
                <author><![CDATA[DETOXIC]]></author>
                </item>

                
                <item>
                <title><![CDATA[【Albums (lossy)】Dolby Atmos - Maroon 5 - V (Deluxe) (Dolby Atmos)]]></title>
                <link><![CDATA[https://sharemania.us/threads/maroon-5-v-deluxe-dolby-atmos.219806/]]></link>
                <description><![CDATA[<article>
<blockquote class="messageText SelectQuoteContainer ugc baseHtml">
<img src="https://i.scdn.co/image/ab67616d0000b273df8c14c6ac24390cffd9fea4" class="bbCodeImage LbImage" alt="[​IMG]" data-url="https://i.scdn.co/image/ab67616d0000b273df8c14c6ac24390cffd9fea4" style=""> <br>
Source: Tidal<br>
Format: .m4a E-AC3 JOC<br>
<div class="bbCodeBlock bbCodeVfcHH HiddenContent">
<div class="attribution type">Hidden Content:</div>
<blockquote>You must reply before you can see the hidden data contained here.</blockquote>
</div>
<div class="messageTextEndMarker">&nbsp;</div>
</blockquote>
</article>]]></description>
                <author><![CDATA[BbbDdd345]]></author>
                </item>

                
                <item>
                <title><![CDATA[【Singles (lossless)】FLAC - corook feat. Olivia Barton - if i were a fish [FLAC 24bit/96k]]]></title>
                <link><![CDATA[https://sharemania.us/threads/corook-feat-olivia-barton-if-i-were-a-fish-flac-24bit-96k.219813/]]></link>
                <description><![CDATA[<article>
<blockquote class="messageText SelectQuoteContainer ugc baseHtml">
<div style="text-align: center"><img src="https://i.ibb.co/nm9QFxX/image.png" class="bbCodeImage LbImage" alt="[​IMG]" data-url="https://i.ibb.co/nm9QFxX/image.png" style=""><br>
<br>
01 if i were a fish (feat. Olivia Barton) 2:21<br>
<br>
<div class="ToggleTriggerAnchor bbCodeSpoilerContainer">
<button type="button" class="button bbCodeSpoilerButton ToggleTrigger Tooltip JsOnly" data-target="> .SpoilerTarget"><span>Spoiler: <span class="SpoilerTitle">MediaInfo</span></span></button>
<div class="SpoilerTarget bbCodeSpoilerText">General<br>
Complete name : D:\01 if i were a fish (feat. Olivia B.flac<br>
Format : FLAC<br>
Format/Info : Free Lossless Audio Codec<br>
File size : 41.8 MiB<br>
Duration : 2 min 21 s<br>
Overall bit rate mode : Variable<br>
Overall bit rate : 2 473 kb/s<br>
Album replay gain : -7.06 dB<br>
Album replay gain peak : 0.976542<br>
Album : if i were a fish (feat. Olivia Barton)<br>
Album/Performer : corook feat. Olivia Barton<br>
Part : 1<br>
Part/Total : 1<br>
Track name : if i were a fish (feat. Olivia Barton)<br>
Track name/Position : 1<br>
Track name/Total : 1<br>
Performer : corook feat. Olivia Barton<br>
Composer : Corinne Savage &amp; Olivia Barton<br>
Genre : Alternative Rock<br>
Recorded date : 2023-04-20T14:00:00Z<br>
ISRC : USAT22304330<br>
Copyright : ℗© 2023 Atlantic Recording Corporation<br>
Cover : Yes<br>
Cover type : Cover (front)<br>
Cover MIME : image/jpeg<br>
ITUNESADVISORY : 0<br>
ITUNESMEDIATYPE : 1<br>
<br>
Audio<br>
Format : FLAC<br>
Format/Info : Free Lossless Audio Codec<br>
Duration : 2 min 21 s<br>
Bit rate mode : Variable<br>
Bit rate : 2 469 kb/s<br>
Channel(s) : 2 channels<br>
Channel layout : L R<br>
Sampling rate : 96.0 kHz<br>
Bit depth : 24 bits<br>
Compression mode : Lossless<br>
Replay gain : -7.06 dB<br>
Replay gain peak : 0.976542<br>
Stream size : 41.8 MiB (100%)<br>
Writing library : Lavf59.30.101<br>
MD5 of the unencoded conten : E62DAEDF8920818F572CC35F0766A89F</div>
</div><br>
<div class="bbCodeBlock bbCodeVfcHH HiddenContent">
<div class="attribution type">Hidden Content:</div>
<blockquote>You must either reply or click 'Like' to see the hidden information contained here.</blockquote>
</div></div>
<div class="messageTextEndMarker">&nbsp;</div>
</blockquote>
</article>]]></description>
                <author><![CDATA[defang]]></author>
                </item>

                
                <item>
                <title><![CDATA[【Singles (lossless)】FLAC - Astrid S &amp; Keisya Levronka - Darkest Hour (Keisya Levronka Version) | Qobuz Hi-Res 24bit / 48.0kHz]]></title>
                <link><![CDATA[https://sharemania.us/threads/astrid-s-keisya-levronka-darkest-hour-keisya-levronka-version-qobuz-hi-res-24bit-48-0khz.219809/]]></link>
                <description><![CDATA[<article>
<blockquote class="messageText SelectQuoteContainer ugc baseHtml">
<div style="text-align: center"><img src="https://static.qobuz.com/images/covers/vb/5n/e1vvtry7d5nvb_600.jpg" class="bbCodeImage LbImage" alt="[​IMG]" data-url="https://static.qobuz.com/images/covers/vb/5n/e1vvtry7d5nvb_600.jpg" style=""><br>
<div class="bbCodeBlock bbCodeVfcHH HiddenContent">
<div class="attribution type">Hidden Content:</div>
<blockquote>You must reply before you can see the hidden data contained here.</blockquote>
</div></div>
<div class="messageTextEndMarker">&nbsp;</div>
</blockquote>
</article>]]></description>
                <author><![CDATA[Yennefer]]></author>
                </item>

                
                <item>
                <title><![CDATA[【Music Videos】Loren Gray - Queen (4K AI)]]></title>
                <link><![CDATA[https://sharemania.us/threads/loren-gray-queen-4k-ai.219805/]]></link>
                <description><![CDATA[<article>
<blockquote class="messageText SelectQuoteContainer ugc baseHtml">
<div style="text-align: center"><img src="https://i.imgur.com/U6UY6wn.jpg" class="bbCodeImage LbImage" alt="[​IMG]" data-url="https://i.imgur.com/U6UY6wn.jpg" style=""><br>
<img src="https://imgur.com/19e2bc5d-7cc6-4a3f-86c0-7a03de7fc03d" class="bbCodeImage LbImage" alt="[​IMG]" data-url="https://imgur.com/19e2bc5d-7cc6-4a3f-86c0-7a03de7fc03d" style=""><br>
<div class="bbCodeBlock bbCodeVfcHH HiddenContent">
<div class="attribution type">Hidden Content:</div>
<blockquote>You must reply before you can see the hidden data contained here.</blockquote>
</div>Source:<br>
<a href="https://sharemania.us/threads/loren-gray-queen-avc.158107/" class="internalLink">https://sharemania.us/threads/loren-gray-queen-avc.158107/</a>​</div>
<div class="messageTextEndMarker">&nbsp;</div>
</blockquote>
</article>]]></description>
                <author><![CDATA[ifuseekme]]></author>
                </item>

                
                <item>
                <title><![CDATA[【Albums (lossless)】PACK - Måns Zelmerlöw - Albums and More (FLAC)]]></title>
                <link><![CDATA[https://sharemania.us/threads/m%C3%A5ns-zelmerl%C3%B6w-albums-and-more-flac.219815/]]></link>
                <description><![CDATA[<article>
<blockquote class="messageText SelectQuoteContainer ugc baseHtml">
<img src="https://static.qobuz.com/images/covers/64/02/0085365760264_600.jpg" class="bbCodeImage LbImage" alt="[​IMG]" data-url="https://static.qobuz.com/images/covers/64/02/0085365760264_600.jpg" style=""><br>
Stand By For...<br>
<br>
1- Miss America<br>
2 - The Prayer<br>
3 - Paradise<br>
4 - Lively up Your Monday<br>
5 - Stand By<br>
6 - Please Me<br>
7 - Cara mia<br>
8 - Agent Zero<br>
9 - Brother Oh Brother<br>
10 - Maniac<br>
11 - Dreaming<br>
12 - Work of Art (Da Vinci)<br>
13 - I Can Be Your Friend<br>
14 - My Mistake<br>
<br>
<img src="https://static.qobuz.com/images/covers/27/06/0085365710627_600.jpg" class="bbCodeImage LbImage" alt="[​IMG]" data-url="https://static.qobuz.com/images/covers/27/06/0085365710627_600.jpg" style=""><br>
MZW<br>
<br>
01 - Hope and Glory<br>
02 - One Minute More<br>
03 - Freak Out<br>
04 - Impossible (Album Version)<br>
05 - Find Love<br>
06 - Rewind<br>
07 - Forever<br>
08 - Saved Again<br>
09 - Home<br>
10 - A Stranger Saved My Life<br>
11 - Whole New World<br>
12 - Hold On<br>
<br>
<img src="https://static.qobuz.com/images/covers/56/19/0825646331956_600.jpg" class="bbCodeImage LbImage" alt="[​IMG]" data-url="https://static.qobuz.com/images/covers/56/19/0825646331956_600.jpg" style=""><br>
<span style="font-size: 15px">Barcelona Sessions<br>
<br>
01 - Run for Your Life</span><br>
02 - Something About This Town<br>
03 - Broken Parts (Single Version)<br>
04 - Children of the Sun<br>
05 - Beautiful Life<br>
06 - Burning Stars<br>
07 - Waiting for the World to End<br>
08 - Sleep on Roses<br>
09 - Brave on the Outside<br>
10 - This Ones for You<br>
11 - Paralells<br>
<br>
<img src="https://static.qobuz.com/images/covers/10/80/0825646088010_600.jpg" class="bbCodeImage LbImage" alt="[​IMG]" data-url="https://static.qobuz.com/images/covers/10/80/0825646088010_600.jpg" style=""><br>
Perfectly Damaged<br>
<br>
01 - Stir It Up<br>
02 - Heroes<br>
03 - Someday<br>
04 - Live While We're Alive<br>
05 - Let It Burn<br>
06 - Should've Gone Home<br>
07 - Fade Away<br>
08 - Hearts Collide<br>
09 - The Core of You<br>
10 - Unbreakable<br>
11 - Kingdom in the Sky<br>
12 - What's in Your Eyes (feat. Tilde Vinther)<br>
<br>
<img src="https://static.qobuz.com/images/covers/06/21/0190295872106_600.jpg" class="bbCodeImage LbImage" alt="[​IMG]" data-url="https://static.qobuz.com/images/covers/06/21/0190295872106_600.jpg" style=""><br>
Chameleon<br>
<br>
01 - Glorious<br>
02 - Beautiful Lie<br>
03 - Happyland<br>
04 - Round Round (feat. Nabiha)<br>
05 - Whistleblower<br>
06 - Hanging on to Nothing<br>
07 - Renegades<br>
08 - Primal<br>
09 - Fire in the Rain<br>
10 - Wrong Decision<br>
<br>
<img src="https://static.qobuz.com/images/covers/sc/mj/qkjjsmd2xmjsc_600.jpg" class="bbCodeImage LbImage" alt="[​IMG]" data-url="https://static.qobuz.com/images/covers/sc/mj/qkjjsmd2xmjsc_600.jpg" style=""><br>
TIME<br>
<br>
01 - On My Way<br>
02 - Faker<br>
03 - Walk With Me<br>
04 - Careless<br>
05 - Real Life<br>
06 - Time<br>
07 - Better Now<br>
08 - One<br>
09 - Mirror<br>
10 - Grow Up To Be You<br>
11 - U &amp; I<br>
12 - Something To You<br>
<br>
<img src="https://static.qobuz.com/images/covers/65/20/0190295742065_600.jpg" class="bbCodeImage LbImage" alt="[​IMG]" data-url="https://static.qobuz.com/images/covers/65/20/0190295742065_600.jpg" style=""><br>
Can I Call You Home - Single<br>
<br>
<img src="https://static.qobuz.com/images/covers/53/16/0190295761653_600.jpg" class="bbCodeImage LbImage" alt="[​IMG]" data-url="https://static.qobuz.com/images/covers/53/16/0190295761653_600.jpg" style=""><br>
We Can Be The Rulers - Single<br>
<br>
<img src="https://static.qobuz.com/images/covers/dc/5d/drk3zoou05ddc_600.jpg" class="bbCodeImage LbImage" alt="[​IMG]" data-url="https://static.qobuz.com/images/covers/dc/5d/drk3zoou05ddc_600.jpg" style=""><br>
Walk With Me (feat <span style="font-size: 15px">Dami Im) - Single<br>
<br>
<img src="https://static.qobuz.com/images/covers/dc/vu/rfs0sa6qwvudc_600.jpg" class="bbCodeImage LbImage" alt="[​IMG]" data-url="https://static.qobuz.com/images/covers/dc/vu/rfs0sa6qwvudc_600.jpg" style=""> <br>
Circles and Squares (feat Polina Gagarina) - Single<br>
<br>
<img src="https://static.qobuz.com/images/covers/kc/em/fl1xfh29pemkc_600.jpg" class="bbCodeImage LbImage" alt="[​IMG]" data-url="https://static.qobuz.com/images/covers/kc/em/fl1xfh29pemkc_600.jpg" style=""> <br>
Come Over Love - Single<br>
<br>
<img src="https://static.qobuz.com/images/covers/gc/vt/z0mzbh4hbvtgc_600.jpg" class="bbCodeImage LbImage" alt="[​IMG]" data-url="https://static.qobuz.com/images/covers/gc/vt/z0mzbh4hbvtgc_600.jpg" style=""> <br>
What You Were Made For - Single<br>
<br>
<img src="https://static.qobuz.com/images/covers/1a/64/gxmqjlsdv641a_600.jpg" class="bbCodeImage LbImage" alt="[​IMG]" data-url="https://static.qobuz.com/images/covers/1a/64/gxmqjlsdv641a_600.jpg" style=""> <br>
Midsummer Love - Single<br>
<br>
<img src="https://static.qobuz.com/images/covers/zb/kq/d7rkqr7yjkqzb_600.jpg" class="bbCodeImage LbImage" alt="[​IMG]" data-url="https://static.qobuz.com/images/covers/zb/kq/d7rkqr7yjkqzb_600.jpg" style=""> <br>
Så Mycket Bättre 2022 - Tolkningarna<br>
<br>
01 - Faller (Tell Her)<br>
02 - Hatar dig [Explicit]<br>
03 - Sober (Mer för varandra)<br>
04 - This Is The One<br>
<br>
<img src="https://static.qobuz.com/images/covers/gc/jq/u2agdv5xrjqgc_600.jpg" class="bbCodeImage LbImage" alt="[​IMG]" data-url="https://static.qobuz.com/images/covers/gc/jq/u2agdv5xrjqgc_600.jpg" style=""> <br>
Andetag - Single<br>
<br>
<img src="https://static.qobuz.com/images/covers/sc/km/wao4bqx4pkmsc_600.jpg" class="bbCodeImage LbImage" alt="[​IMG]" data-url="https://static.qobuz.com/images/covers/sc/km/wao4bqx4pkmsc_600.jpg" style=""> <br>
Alone On Christmas Eve<br>
<br>
<img src="https://static.qobuz.com/images/covers/zb/fw/bnxhut7p0fwzb_600.jpg" class="bbCodeImage LbImage" alt="[​IMG]" data-url="https://static.qobuz.com/images/covers/zb/fw/bnxhut7p0fwzb_600.jpg" style=""> <br>
Let´s Sing (It´s Christmas Time)<br>
<br>
LINK<br>
<br>
<div class="bbCodeBlock bbCodeVfcHH HiddenContent">
<div class="attribution type">Hidden Content:</div>
<blockquote>You must reply before you can see the hidden data contained here.</blockquote>
</div>
<div class="bbCodeBlock bbCodeVfcHH HiddenContent">
<div class="attribution type">Hidden Content:</div>
<blockquote>You must reply before you can see the hidden data contained here.</blockquote>
</div></span>
<div class="messageTextEndMarker">&nbsp;</div>
</blockquote>
</article>]]></description>
                <author><![CDATA[juc9212]]></author>
                </item>

                
                <item>
                <title><![CDATA[【Singles (lossy)】iTunes Plus - Kim Petras, Nicki Minaj - Alone (Extended &amp; A Cappella)[iTunes Plus AAC M4A]]]></title>
                <link><![CDATA[https://sharemania.us/threads/kim-petras-nicki-minaj-alone-extended-a-cappella-itunes-plus-aac-m4a.219811/]]></link>
                <description><![CDATA[<article>
<blockquote class="messageText SelectQuoteContainer ugc baseHtml">
<img src="https://i.imgur.com/rsMnbyJ.jpg" class="bbCodeImage LbImage" alt="[​IMG]" data-url="https://i.imgur.com/rsMnbyJ.jpg" style=""><br>
<br>
Alone (Extended) 4:01<br>
Alone (A Cappella) 3:03<br>
<br>
<div class="bbCodeBlock bbCodeVfcHH HiddenContent">
<div class="attribution type">Hidden Content:</div>
<blockquote>You must reply before you can see the hidden data contained here.</blockquote>
</div>
<div class="messageTextEndMarker">&nbsp;</div>
</blockquote>
</article>]]></description>
                <author><![CDATA[ksr91]]></author>
                </item>

                
                <item>
                <title><![CDATA[【Albums (lossless)】WAV - Jonas Brothers - Be Mine - EP [CD 16Bit 44.1KHz]]]></title>
                <link><![CDATA[https://sharemania.us/threads/jonas-brothers-be-mine-ep-cd-16bit-44-1khz.219821/]]></link>
                <description><![CDATA[<article>
<blockquote class="messageText SelectQuoteContainer ugc baseHtml">
<div style="text-align: center"><img src="https://m.media-amazon.com/images/I/510ssuqvxtL.jpg" class="bbCodeImage LbImage" alt="[​IMG]" data-url="https://m.media-amazon.com/images/I/510ssuqvxtL.jpg" style=""><br>
01 Lovebug<br>
02 When You Look Me In The Eyes<br>
03 Got Me Going Crazy<br>
04 Burnin’ Up<br>
05 Still In Love With You<br>
<br>
POP - 17Mins<br>
<br>
<div class="bbCodeBlock bbCodeVfcHH HiddenContent">
<div class="attribution type">Hidden Content:</div>
<blockquote>You must either reply or click 'Like' to see the hidden information contained here.</blockquote>
</div></div>
<div class="messageTextEndMarker">&nbsp;</div>
</blockquote>
</article>]]></description>
                <author><![CDATA[curtisrice04]]></author>
                </item>

                
                <item>
                <title><![CDATA[【Singles (lossless)】FLAC - Girls Aloud - Sound Of The Underground (Alternative Vocal Mix) | Qobuz CD 16bit / 44.1kHz]]></title>
                <link><![CDATA[https://sharemania.us/threads/girls-aloud-sound-of-the-underground-alternative-vocal-mix-qobuz-cd-16bit-44-1khz.219823/]]></link>
                <description><![CDATA[<article>
<blockquote class="messageText SelectQuoteContainer ugc baseHtml">
<div style="text-align: center"><img src="https://static.qobuz.com/images/covers/hb/on/hihv3l0f5onhb_600.jpg" class="bbCodeImage LbImage" alt="[​IMG]" data-url="https://static.qobuz.com/images/covers/hb/on/hihv3l0f5onhb_600.jpg" style=""><br>
<div class="bbCodeBlock bbCodeVfcHH HiddenContent">
<div class="attribution type">Hidden Content:</div>
<blockquote>You must reply before you can see the hidden data contained here.</blockquote>
</div></div>
<div class="messageTextEndMarker">&nbsp;</div>
</blockquote>
</article>]]></description>
                <author><![CDATA[Yennefer]]></author>
                </item>

                
                <item>
                <title><![CDATA[【Singles (lossless)】FLAC - Kesha - Eat The Acid / Fine Line | Qobuz Hi-Res 24bit / 44.1kHz]]></title>
                <link><![CDATA[https://sharemania.us/threads/kesha-eat-the-acid-fine-line-qobuz-hi-res-24bit-44-1khz.219828/]]></link>
                <description><![CDATA[<article>
<blockquote class="messageText SelectQuoteContainer ugc baseHtml">
<div style="text-align: center"><img src="https://static.qobuz.com/images/covers/ic/j0/q1u8czaplj0ic_600.jpg" class="bbCodeImage LbImage" alt="[​IMG]" data-url="https://static.qobuz.com/images/covers/ic/j0/q1u8czaplj0ic_600.jpg" style=""><br>
<b>Eat The Acid</b><br>
<div class="bbCodeBlock bbCodeVfcHH HiddenContent">
<div class="attribution type">Hidden Content:</div>
<blockquote>You must reply before you can see the hidden data contained here.</blockquote>
</div><b>Fine Line</b><br>
<div class="bbCodeBlock bbCodeVfcHH HiddenContent">
<div class="attribution type">Hidden Content:</div>
<blockquote>You must reply before you can see the hidden data contained here.</blockquote>
</div></div>
<div class="messageTextEndMarker">&nbsp;</div>
</blockquote>
</article>]]></description>
                <author><![CDATA[Yennefer]]></author>
                </item>

                
                <item>
                <title><![CDATA[【Albums (lossless)】FLAC - Florence + The Machine - Dance Fever (Complete Edition) | Qobuz Hi-Res 24bit / 96.0kHz]]></title>
                <link><![CDATA[https://sharemania.us/threads/florence-the-machine-dance-fever-complete-edition-qobuz-hi-res-24bit-96-0khz.219814/]]></link>
                <description><![CDATA[<article>
<blockquote class="messageText SelectQuoteContainer ugc baseHtml">
<div style="text-align: center"><img src="https://static.qobuz.com/images/covers/vb/r2/rqqe5hf7pr2vb_600.jpg" class="bbCodeImage LbImage" alt="[​IMG]" data-url="https://static.qobuz.com/images/covers/vb/r2/rqqe5hf7pr2vb_600.jpg" style=""><br>
<span style="font-size: 15px"><b>Florence + the Machine – Dance Fever (Complete Edition)</b></span><br>
<br>
<b>Year:</b> 2023-04-21<br>
<b>Genre:</b> Alternative<br>
<br>
<span style="font-size: 12px"><b>Tracklist</b></span><br>
<b>1.</b> King <i>(04:40)</i><br>
<b>2.</b> Free <i>(03:54)</i><br>
<b>3.</b> Choreomania <i>(03:33)</i><br>
<b>4.</b> Back In Town <i>(03:55)</i><br>
<b>5.</b> Girls Against God <i>(04:40)</i><br>
<b>6.</b> Dream Girl Evil <i>(03:47)</i><br>
<b>7.</b> Prayer Factory <i>(01:13)</i><br>
<b>8.</b> Cassandra <i>(04:17)</i><br>
<b>9.</b> Heaven Is Here <i>(01:51)</i><br>
<b>10.</b> Daffodil <i>(03:34)</i><br>
<b>11.</b> My Love <i>(03:51)</i><br>
<b>12.</b> Restraint <i>(00:47)</i><br>
<b>13.</b> The Bomb <i>(02:44)</i><br>
<b>14.</b> Mermaids <i>(04:35)</i><br>
<b>15.</b> Morning Elvis <i>(04:21)</i><br>
<b>16.</b> King (Poem Version) <i>(03:00)</i><br>
<b>17.</b> My Love (Poem Version) <i>(02:52)</i><br>
<b>18.</b> Cassandra (Poem Version) <i>(04:00)</i><br>
<br>
<b>Total length:</b> 01:01:34<br>
<div class="bbCodeBlock bbCodeVfcHH HiddenContent">
<div class="attribution type">Hidden Content:</div>
<blockquote>You must reply before you can see the hidden data contained here.</blockquote>
</div></div>
<div class="messageTextEndMarker">&nbsp;</div>
</blockquote>
</article>]]></description>
                <author><![CDATA[Yennefer]]></author>
                </item>

                
                <item>
                <title><![CDATA[【Requests】[REQ AUD] - Eurovision 2023]]></title>
                <link><![CDATA[https://sharemania.us/threads/eurovision-2023.219824/]]></link>
                <description><![CDATA[<article>
<blockquote class="messageText SelectQuoteContainer ugc baseHtml">
Could someone please upload the Eurovision 2023 album in mp3 320 once it's out?
<div class="messageTextEndMarker">&nbsp;</div>
</blockquote>
</article>]]></description>
                <author><![CDATA[Auroraofmusicmoon]]></author>
                </item>

                
                <item>
                <title><![CDATA[【Albums (lossy)】Dolby Atmos - Maroon 5 - It Won't Be Soon Before Long (Dolby Atmos)]]></title>
                <link><![CDATA[https://sharemania.us/threads/maroon-5-it-wont-be-soon-before-long-dolby-atmos.219808/]]></link>
                <description><![CDATA[<article>
<blockquote class="messageText SelectQuoteContainer ugc baseHtml">
<img src="https://i.scdn.co/image/ab67616d0000b2739741173cf2b32dab39424538" class="bbCodeImage LbImage" alt="[​IMG]" data-url="https://i.scdn.co/image/ab67616d0000b2739741173cf2b32dab39424538" style=""> <br>
Source: Tidal<br>
Format: .m4a E-AC3 JOC<br>
<div class="bbCodeBlock bbCodeVfcHH HiddenContent">
<div class="attribution type">Hidden Content:</div>
<blockquote>You must reply before you can see the hidden data contained here.</blockquote>
</div>
<div class="messageTextEndMarker">&nbsp;</div>
</blockquote>
</article>]]></description>
                <author><![CDATA[BbbDdd345]]></author>
                </item>

                
                <item>
                <title><![CDATA[【Albums (lossless)】FLAC - Bebe Rexha – Bebe | CDRip 16bit / 44.1kHz + MP3]]></title>
                <link><![CDATA[https://sharemania.us/threads/bebe-rexha-%E2%80%93-bebe-cdrip-16bit-44-1khz-mp3.219816/]]></link>
                <description><![CDATA[<article>
<blockquote class="messageText SelectQuoteContainer ugc baseHtml">
<div style="text-align: center"><img src="https://static.qobuz.com/images/covers/ra/vh/ypofsvwbyvhra_600.jpg" class="bbCodeImage LbImage" alt="[​IMG]" data-url="https://static.qobuz.com/images/covers/ra/vh/ypofsvwbyvhra_600.jpg" style=""><br>
<span style="font-size: 15px"><b>Bebe Rexha – Bebe</b></span><br>
<br>
<b>Year:</b> 2023-04-27<br>
<b>Genre:</b> Pop<br>
<br>
<span style="font-size: 12px"><b>Tracklist</b></span><br>
<b>1.</b> Heart Wants What It Wants <i>(03:02)</i><br>
<b>2.</b> Miracle Man<br>
<b>3.</b> Bebe Rexha &amp; Snoop Dogg – Satellite <i>(03:28)</i><br>
<b>4.</b> When It Rains<br>
<b>5.</b> Call on Me <i>(02:50)</i><br>
<b>6.</b> David Guetta &amp; Bebe Rexha – I'm Good (Blue) <i>(02:55)</i><br>
<b>7.</b> Visions (Don't Go)<br>
<b>8.</b> I'm Not High, I'm In Love<br>
<b>9.</b> Blue Moon<br>
<b>10.</b> Born Again<br>
<b>11.</b> I Am<br>
<b>12.</b> Bebe Rexha &amp; Dolly Parton – Seasons<br>
<div class="bbCodeBlock bbCodeVfcHH HiddenContent">
<div class="attribution type">Hidden Content:</div>
<blockquote>You must reply before you can see the hidden data contained here.</blockquote>
</div><b>MP3</b><br>
<div class="bbCodeBlock bbCodeVfcHH HiddenContent">
<div class="attribution type">Hidden Content:</div>
<blockquote>You must reply before you can see the hidden data contained here.</blockquote>
</div></div>
<div class="messageTextEndMarker">&nbsp;</div>
</blockquote>
</article>]]></description>
                <author><![CDATA[Yennefer]]></author>
                </item>

                
                <item>
                <title><![CDATA[【Albums (lossy)】Dolby Atmos - Maroon 5 - Red Pill Blues (Deluxe) (Dolby Atmos)]]></title>
                <link><![CDATA[https://sharemania.us/threads/maroon-5-red-pill-blues-deluxe-dolby-atmos.219807/]]></link>
                <description><![CDATA[<article>
<blockquote class="messageText SelectQuoteContainer ugc baseHtml">
<img src="https://i.scdn.co/image/ab67616d0000b273da7a6416baa02fc88a9587e0" class="bbCodeImage LbImage" alt="[​IMG]" data-url="https://i.scdn.co/image/ab67616d0000b273da7a6416baa02fc88a9587e0" style=""> <br>
Source: Tidal<br>
Format: .m4a E-AC3 JOC<br>
<div class="bbCodeBlock bbCodeVfcHH HiddenContent">
<div class="attribution type">Hidden Content:</div>
<blockquote>You must reply before you can see the hidden data contained here.</blockquote>
</div>
<div class="messageTextEndMarker">&nbsp;</div>
</blockquote>
</article>]]></description>
                <author><![CDATA[BbbDdd345]]></author>
                </item>

                
                <item>
                <title><![CDATA[【Albums (lossless)】FLAC - Lena Katina (Ex. t.A.T.u.) - This is Who I Am FLAC  Of CD]]></title>
                <link><![CDATA[https://sharemania.us/threads/lena-katina-ex-t-a-t-u-this-is-who-i-am-flac-of-cd.219819/]]></link>
                <description><![CDATA[<article>
<blockquote class="messageText SelectQuoteContainer ugc baseHtml">
<div style="text-align: center"><span style="font-size: 22px">Lena Katina (Ex. t.A.T.u.) - This is Who I Am FLAC Of CD</span><br>
<br>
<img src="https://i.ibb.co/9wKDBLD/Imagen-de-Whats-App-2023-04-26-a-las-23-27-10.jpg" class="bbCodeImage LbImage" alt="[​IMG]" data-url="https://i.ibb.co/9wKDBLD/Imagen-de-Whats-App-2023-04-26-a-las-23-27-10.jpg" style=""> <img src="https://i.ibb.co/LnPBGWJ/Imagen-de-Whats-App-2023-04-26-a-las-23-27-11.jpg" class="bbCodeImage LbImage" alt="[​IMG]" data-url="https://i.ibb.co/LnPBGWJ/Imagen-de-Whats-App-2023-04-26-a-las-23-27-11.jpg" style=""> <br>
<br>
<div class="bbCodeBlock bbCodeVfcHH HiddenContent">
<div class="attribution type">Hidden Content:</div>
<blockquote>You must reply before you can see the hidden data contained here.</blockquote>
</div></div>
<div class="messageTextEndMarker">&nbsp;</div>
</blockquote>
</article>]]></description>
                <author><![CDATA[darkmagicar5]]></author>
                </item>

                
                <item>
                <title><![CDATA[【Live Audios (lossy)】MP3 - Beck G Coachella Special Edition]]></title>
                <link><![CDATA[https://sharemania.us/threads/beck-g-coachella-special-edition.219810/]]></link>
                <description><![CDATA[<article>
<blockquote class="messageText SelectQuoteContainer ugc baseHtml">
<div class="bbCodeBlock bbCodeVfcHH HiddenContent">
<div class="attribution type">Hidden Content:</div>
<blockquote>You must reply before you can see the hidden data contained here.</blockquote>
</div> junte los dos conciertos de becky y hizo un album
<div class="messageTextEndMarker">&nbsp;</div>
</blockquote>
</article>]]></description>
                <author><![CDATA[brendo098]]></author>
                </item>

                
                <item>
                <title><![CDATA[【Cinema Center】MOVIE - Close 2022 1080p BluRay HEVC 10bit ACC 5.1]]></title>
                <link><![CDATA[https://sharemania.us/threads/close-2022-1080p-bluray-hevc-10bit-acc-5-1.219822/]]></link>
                <description><![CDATA[<article>
<blockquote class="messageText SelectQuoteContainer ugc baseHtml">
<img src="https://images2.imgbox.com/da/cf/uHvpkh0K_o.png" class="bbCodeImage LbImage" alt="[​IMG]" data-url="https://images2.imgbox.com/da/cf/uHvpkh0K_o.png" style=""><br>
<img src="https://images2.imgbox.com/86/82/8AX8ycqF_o.jpg" class="bbCodeImage LbImage" alt="[​IMG]" data-url="https://images2.imgbox.com/86/82/8AX8ycqF_o.jpg" style=""><br>
<div class="ToggleTriggerAnchor bbCodeSpoilerContainer">
<button type="button" class="button bbCodeSpoilerButton ToggleTrigger Tooltip JsOnly" data-target="> .SpoilerTarget"><span>Spoiler: <span class="SpoilerTitle">MediaInfo</span></span></button>
<div class="SpoilerTarget bbCodeSpoilerText">General<br>
Complete name : Close (2022) (1080p BluRay x265 10bit Tigole).mkv<br>
Format : Matroska<br>
Format version : Version 4<br>
File size : 5.39 GiB<br>
Duration : 1 h 44 min<br>
Overall bit rate : 7 416 kb/s<br>
Frame rate : 24.000 FPS<br>
Encoded date : 2023-03-09 02:24:11 UTC<br>
Writing application : mkvmerge v65.0.0 ('Too Much') 64-bit<br>
Writing library : libebml v1.4.2 + libmatroska v1.6.4<br>
<br>
Video<br>
ID : 1<br>
Format : HEVC<br>
Format/Info : High Efficiency Video Coding<br>
Format profile : Main 10<br>
Format level : 4<br>
Format tier : Main<br>
Codec ID : V_MPEGH/ISO/HEVC<br>
Duration : 1 h 44 min<br>
Bit rate : 7 002 kb/s<br>
Width : 1 800 pixels<br>
Height : 1 080 pixels<br>
Display aspect ratio : 5:3<br>
Frame rate mode : Constant<br>
Frame rate : 24.000 FPS<br>
Color space : YUV<br>
Chroma subsampling : 4:2:0<br>
Bit depth : 10 bits<br>
Bits/(Pixel*Frame) : 0.150<br>
Stream size : 5.09 GiB (94%)<br>
Writing library : x265M - 3.4+35-772bb4c84:[Windows][GCC 10.2.0][64 bit] 10bit<br>
Encoding settings : cpuid=1111039 / frame-threads=4 / numa-pools=16 / wpp / no-pmode / no-pme / no-psnr / no-ssim / log-level=2 / input-csp=1 / input-res=1800x1080 / interlace=0 / total-frames=149760 / level-idc=0 / high-tier=1 / uhd-bd=0 / ref=4 / no-allow-non-conformance / no-repeat-headers / annexb / no-aud / no-hrd / info / hash=0 / no-temporal-layers / open-gop / min-keyint=24 / keyint=250 / gop-lookahead=0 / bframes=4 / b-adapt=2 / b-pyramid / bframe-bias=0 / rc-lookahead=25 / lookahead-slices=4 / scenecut=40 / hist-scenecut=0 / radl=0 / no-splice / no-intra-refresh / ctu=64 / min-cu-size=8 / rect / no-amp / max-tu-size=32 / tu-inter-depth=1 / tu-intra-depth=1 / limit-tu=0 / rdoq-level=2 / dynamic-rd=0.00 / no-ssim-rd / signhide / no-tskip / nr-intra=0 / nr-inter=0 / no-constrained-intra / strong-intra-smoothing / max-merge=3 / limit-refs=3 / limit-modes / me=3 / subme=3 / merange=57 / temporal-mvp / no-frame-dup / no-hme / weightp / no-weightb / no-analyze-src-pics / deblock=0:0 / no-sao / no-sao-non-deblock / rd=4 / selective-sao=0 / no-early-skip / rskip / no-fast-intra / no-tskip-fast / no-cu-lossless / no-b-intra / no-splitrd-skip / rdpenalty=0 / psy-rd=2.00 / psy-rdoq=1.00 / no-rd-refine / no-lossless / cbqpoffs=0 / crqpoffs=0 / rc=abr / bitrate=7000 / qcomp=0.60 / qpstep=4 / stats-write=0 / stats-read=2 / cplxblur=20.0 / qblur=0.5 / ipratio=1.40 / pbratio=1.30 / aq-mode=3 / aq-strength=1.00 / cutree / zone-count=0 / no-strict-cbr / qg-size=32 / no-rc-grain / qpmax=69 / qpmin=0 / no-const-vbv / sar=0 / overscan=0 / videoformat=5 / range=0 / colorprim=2 / transfer=2 / colormatrix=2 / chromaloc=0 / display-window=0 / cll=0,0 / min-luma=0 / max-luma=1023 / log2-max-poc-lsb=8 / vui-timing-info / vui-hrd-info / slices=1 / no-opt-qp-pps / no-opt-ref-list-length-pps / multi-pass-opt-rps / scenecut-bias=0.05 / hist-threshold=0.03 / no-opt-cu-delta-qp / aq-motion / no-hdr10 / no-hdr10-opt / no-dhdr10-opt / no-idr-recovery-sei / analysis-reuse-level=0 / analysis-save-reuse-level=0 / analysis-load-reuse-level=0 / scale-factor=0 / refine-intra=0 / refine-inter=0 / refine-mv=1 / refine-ctu-distortion=0 / no-limit-sao / ctu-info=0 / no-lowpass-dct / refine-analysis-type=0 / copy-pic=1 / max-ausize-factor=1.0 / no-dynamic-refine / no-single-sei / no-hevc-aq / no-svt / no-field / qp-adaptation-range=1.00 / scenecut-aware-qp=0conformance-window-offsets / right=0 / bottom=0 / decoder-max-rate=0 / no-vbv-live-multi-pass<br>
Default : Yes<br>
Forced : No<br>
<br>
Audio<br>
ID : 2<br>
Format : AAC LC<br>
Format/Info : Advanced Audio Codec<br>
Codec ID : A_AAC-2<br>
Duration : 1 h 44 min<br>
Bit rate : 409 kb/s<br>
Channel(s) : 6 channels<br>
Channel layout : C L R Ls Rs LFE<br>
Sampling rate : 48.0 kHz<br>
Frame rate : 46.875 FPS (1024 SPF)<br>
Compression mode : Lossy<br>
Delay relative to video : 20 ms<br>
Stream size : 304 MiB (6%)<br>
Language : French<br>
Default : Yes<br>
Forced : No<br>
<br>
Text #1<br>
ID : 3<br>
Format : UTF-8<br>
Codec ID : S_TEXT/UTF8<br>
Duration : 1 h 35 min<br>
Bit rate : 28 b/s<br>
Frame rate : 0.126 FPS<br>
Count of elements : 725<br>
Stream size : 20.3 KiB (0%)<br>
Language : English<br>
Default : Yes<br>
Forced : No<br>
<br>
Text #2<br>
ID : 4<br>
Format : VobSub<br>
Muxing mode : zlib<br>
Codec ID : S_VOBSUB<br>
Duration : 1 h 43 min<br>
Bit rate : 4 148 b/s<br>
Frame rate : 0.197 FPS<br>
Count of elements : 1221<br>
Stream size : 3.06 MiB (0%)<br>
Language : French<br>
Default : No<br>
Forced : No<br>
<br>
Text #3<br>
ID : 5<br>
Format : VobSub<br>
Muxing mode : zlib<br>
Codec ID : S_VOBSUB<br>
Duration : 1 h 25 min<br>
Bit rate : 733 b/s<br>
Frame rate : 0.026 FPS<br>
Count of elements : 132<br>
Stream size : 461 KiB (0%)<br>
Title : Forced<br>
Language : French<br>
Default : No<br>
Forced : No<br>
<br>
Menu<br>
_00_00_00_000 : en:Chapter 01<br>
_00_09_54_666 : en:Chapter 02<br>
_00_19_12_041 : en:Chapter 03<br>
_00_28_04_250 : en:Chapter 04<br>
_00_35_16_958 : en:Chapter 05<br>
_00_47_35_791 : en:Chapter 06<br>
_00_58_21_875 : en:Chapter 07<br>
_01_06_22_500 : en:Chapter 08<br>
_01_14_35_125 : en:Chapter 09<br>
_01_22_58_458 : en:Chapter 10<br>
_01_31_14_791 : en:Chapter 11<br>
_01_38_39_625 : en:Chapter 12</div>
</div>
<div class="bbCodeBlock bbCodeVfcHH HiddenContent">
<div class="attribution type">Hidden Content:</div>
<blockquote>You must reply before you can see the hidden data contained here.</blockquote>
</div>
<div class="messageTextEndMarker">&nbsp;</div>
</blockquote>
</article>]]></description>
                <author><![CDATA[Cauã]]></author>
                </item>

                
                <item>
                <title><![CDATA[【SD】DVD - Puff Daddy Feat Faith.Evans - I ll Be Missing You Lpcm-Promo Only]]></title>
                <link><![CDATA[https://sharemania.us/threads/puff-daddy-feat-faith-evans-i-ll-be-missing-you-lpcm-promo-only.219817/]]></link>
                <description><![CDATA[<article>
<blockquote class="messageText SelectQuoteContainer ugc baseHtml">
 friends of sharemania can you remaster this video (UPSCALE) please<br>
It really is a collectible and it would be better to have it improved the image<br>
thank you so much <img src="styles/default/xenforo/smilies/big_smile-48.png" class="mceSmilie" alt=":)" title="Smile    :)"><br>
<br>
<a href="https://ibb.co/n1xPNpy" target="_blank" class="externalLink" rel="nofollow"><img src="https://i.ibb.co/ykH4c2C/Puff-Daddy-Feat-Faith-Evans-I-ll-Be-Missing-You-Lpcm-Promo-vob-thumbs.jpg" class="bbCodeImage LbImage" alt="[​IMG]" data-url="https://i.ibb.co/ykH4c2C/Puff-Daddy-Feat-Faith-Evans-I-ll-Be-Missing-You-Lpcm-Promo-vob-thumbs.jpg"></a><br>
<br>
<div class="bbCodeBlock bbCodeVfcHH HiddenContent">
<div class="attribution type">Hidden Content:</div>
<blockquote>You must either reply or click 'Like' to see the hidden information contained here.</blockquote>
</div>enjoy friends <img src="styles/default/xenforo/smilies/big_smile-48.png" class="mceSmilie" alt=":)" title="Smile    :)">
<div class="messageTextEndMarker">&nbsp;</div>
</blockquote>
</article>]]></description>
                <author><![CDATA[orionN]]></author>
                </item>

                
                <item>
                <title><![CDATA[【Albums (lossy)】Dolby Atmos - Wiz Khalifa - Rolling Papers (Dolby Atmos)]]></title>
                <link><![CDATA[https://sharemania.us/threads/wiz-khalifa-rolling-papers-dolby-atmos.219803/]]></link>
                <description><![CDATA[<article>
<blockquote class="messageText SelectQuoteContainer ugc baseHtml">
<img src="https://i.scdn.co/image/ab67616d0000b273fe3cf32b1320e8ded39d8c74" class="bbCodeImage LbImage" alt="[​IMG]" data-url="https://i.scdn.co/image/ab67616d0000b273fe3cf32b1320e8ded39d8c74" style=""> <br>
Source: Tidal<br>
Format: .m4a E-AC3 JOC<br>
<div class="bbCodeBlock bbCodeVfcHH HiddenContent">
<div class="attribution type">Hidden Content:</div>
<blockquote>You must reply before you can see the hidden data contained here.</blockquote>
</div>
<div class="messageTextEndMarker">&nbsp;</div>
</blockquote>
</article>]]></description>
                <author><![CDATA[BbbDdd345]]></author>
                </item>

                
                <item>
                <title><![CDATA[【Singles (lossless)】FLAC - Jess Glynne - Silly Me | Qobuz Hi-Res 24bit / 48.0kHz]]></title>
                <link><![CDATA[https://sharemania.us/threads/jess-glynne-silly-me-qobuz-hi-res-24bit-48-0khz.219825/]]></link>
                <description><![CDATA[<article>
<blockquote class="messageText SelectQuoteContainer ugc baseHtml">
<div style="text-align: center"><img src="https://static.qobuz.com/images/covers/sc/lr/f6tzm5w0ulrsc_600.jpg" class="bbCodeImage LbImage" alt="[​IMG]" data-url="https://static.qobuz.com/images/covers/sc/lr/f6tzm5w0ulrsc_600.jpg" style=""><br>
<div class="bbCodeBlock bbCodeVfcHH HiddenContent">
<div class="attribution type">Hidden Content:</div>
<blockquote>You must reply before you can see the hidden data contained here.</blockquote>
</div></div>
<div class="messageTextEndMarker">&nbsp;</div>
</blockquote>
</article>]]></description>
                <author><![CDATA[Yennefer]]></author>
                </item>

                
                <item>
                <title><![CDATA[【Albums (lossy)】Dolby Atmos - Wiz Khalifa - Rolling Papers 2 (Dolby Atmos)]]></title>
                <link><![CDATA[https://sharemania.us/threads/wiz-khalifa-rolling-papers-2-dolby-atmos.219804/]]></link>
                <description><![CDATA[<article>
<blockquote class="messageText SelectQuoteContainer ugc baseHtml">
<img src="https://i.scdn.co/image/ab67616d0000b273393d29e88d493bdab8af1617" class="bbCodeImage LbImage" alt="[​IMG]" data-url="https://i.scdn.co/image/ab67616d0000b273393d29e88d493bdab8af1617" style=""> <br>
Source: Tidal<br>
Format: .m4a E-AC3 JOC<br>
<div class="bbCodeBlock bbCodeVfcHH HiddenContent">
<div class="attribution type">Hidden Content:</div>
<blockquote>You must reply before you can see the hidden data contained here.</blockquote>
</div>
<div class="messageTextEndMarker">&nbsp;</div>
</blockquote>
</article>]]></description>
                <author><![CDATA[BbbDdd345]]></author>
                </item>

                
                <item>
                <title><![CDATA[【Requests】[REQ AUD] - Igorrr - Hallelujah]]></title>
                <link><![CDATA[https://sharemania.us/threads/igorrr-hallelujah.219827/]]></link>
                <description><![CDATA[<article>
<blockquote class="messageText SelectQuoteContainer ugc baseHtml">
Looking for this album by Igorrr.<br>
<br>
I would appreciate the high quality files.<br>
<br>
Thank you!<br>
<br>
<br>
2012 – Hallelujah<br>
<br>
<a href="https://www.qobuz.com/us-en/album/hallelujah-igorrr/lroctotj7ehoa" target="_blank" class="externalLink" rel="nofollow">https://www.qobuz.com/us-en/album/hallelujah-igorrr/lroctotj7ehoa</a>
<div class="messageTextEndMarker">&nbsp;</div>
</blockquote>
</article>]]></description>
                <author><![CDATA[deltaembryo]]></author>
                </item>

                </channel></rss>